<svg width="2280" height="690" viewBox="0 0 2280 690" fill="none" xmlns="http://www.w3.org/2000/svg">
<rect x="32.5" y="32.5" width="2215" height="625" rx="31.5" fill="#141031" stroke="#3D3192"/>
<path d="M721.192 205.672H700.264L696.168 217H690.088L707.368 170.664H714.024L731.368 217H725.288L721.192 205.672ZM719.272 200.488L710.76 176.936L702.184 200.488H719.272ZM736.663 170.664H743.575V177.448H736.663V170.664ZM737.303 182.568H742.871V217H737.303V182.568ZM751.101 170.664H756.669V198.44L772.029 182.568H779.005L765.885 196.072L780.221 217H773.693L762.109 200.04L756.669 205.608V217H751.101V170.664ZM784.851 170.664H791.763V177.448H784.851V170.664ZM785.491 182.568H791.059V217H785.491V182.568ZM830.111 170.664V217H824.543V211.304C822.303 215.08 818.655 217.768 813.215 217.768C804.639 217.768 798.559 210.984 798.559 199.784C798.559 188.52 804.639 181.8 813.215 181.8C818.655 181.8 822.303 184.488 824.543 188.264V170.664H830.111ZM814.431 213.032C820.703 213.032 824.863 207.592 824.863 199.784C824.863 191.976 820.703 186.472 814.431 186.472C808.095 186.472 804.255 192.04 804.255 199.784C804.255 207.528 808.095 213.032 814.431 213.032ZM852.435 217.768C842.387 217.768 836.243 210.792 836.243 199.784C836.243 188.776 842.387 181.8 852.435 181.8C862.419 181.8 868.627 188.776 868.627 199.784C868.627 210.792 862.419 217.768 852.435 217.768ZM852.435 213.032C859.027 213.032 862.931 208.104 862.931 199.784C862.931 191.464 859.027 186.472 852.435 186.472C845.843 186.472 841.939 191.464 841.939 199.784C841.939 208.104 845.843 213.032 852.435 213.032ZM897.071 175.912V190.312H918.255V195.56H897.071V217H891.247V170.664H920.815V175.912H897.071ZM927.601 170.664H934.513V177.448H927.601V170.664ZM928.241 182.568H933.809V217H928.241V182.568ZM957.075 182.184C957.843 182.184 958.547 182.248 959.251 182.376V187.944C958.483 187.816 957.587 187.752 956.819 187.752C947.859 187.752 947.731 196.072 947.731 201.192V217H942.163V182.568H947.667V188.136C949.587 184.36 952.659 182.184 957.075 182.184ZM978.944 181.8C989.632 181.8 995.648 189.736 995.072 201.32H968.128C968.64 208.232 972.48 213.032 979.072 213.032C984.192 213.032 987.968 210.152 989.056 205.8H994.752C993.216 213.608 987.072 217.768 979.072 217.768C968.576 217.768 962.368 210.536 962.368 199.784C962.368 189.032 968.768 181.8 978.944 181.8ZM989.184 197.032C989.056 191.848 985.856 186.472 978.752 186.472C972.48 186.472 968.96 190.696 968.192 197.032H989.184ZM998.282 182.568H1004.23L1011.15 208.552L1018.83 182.568H1024.2L1031.95 208.552L1038.86 182.568H1044.75L1034.7 217H1029.39L1021.51 190.44L1013.71 217H1008.33L998.282 182.568ZM1072.39 217C1072.2 215.272 1072.07 214.184 1072 212.008C1069.51 215.592 1065.48 217.768 1060.1 217.768C1054.66 217.768 1047.94 215.464 1047.94 207.912C1047.94 201.192 1053.25 196.84 1065.35 196.84H1072V196.2C1072 192.04 1071.75 186.344 1063.56 186.344C1057.22 186.344 1055.04 189.8 1054.4 193.448H1048.84C1049.67 186.664 1054.28 181.8 1063.81 181.8C1074.95 181.8 1077.57 188.456 1077.57 195.56V209.768C1077.57 212.2 1077.7 214.952 1077.96 217H1072.39ZM1061.44 213.224C1066.76 213.224 1072.13 210.664 1072.13 201.064H1065.92C1057.48 201.064 1053.64 203.176 1053.64 207.4C1053.64 211.176 1056.64 213.224 1061.44 213.224ZM1085.98 170.664H1091.55V217H1085.98V170.664ZM1100.48 170.664H1106.05V217H1100.48V170.664Z" fill="white"/>
<path d="M705.896 283.208C701.672 283.208 700.648 284.232 700.648 288.072V290.568H707.752V295.112H700.648V325H695.08V295.112H690.088V290.568H695.08V287.88C695.08 282.44 696.872 278.664 704.36 278.664H708.136V283.208H705.896ZM725.998 325.768C715.95 325.768 709.806 318.792 709.806 307.784C709.806 296.776 715.95 289.8 725.998 289.8C735.982 289.8 742.19 296.776 742.19 307.784C742.19 318.792 735.982 325.768 725.998 325.768ZM725.998 321.032C732.59 321.032 736.494 316.104 736.494 307.784C736.494 299.464 732.59 294.472 725.998 294.472C719.406 294.472 715.502 299.464 715.502 307.784C715.502 316.104 719.406 321.032 725.998 321.032ZM763.2 290.184C763.968 290.184 764.672 290.248 765.376 290.376V295.944C764.608 295.816 763.712 295.752 762.944 295.752C753.984 295.752 753.856 304.072 753.856 309.192V325H748.288V290.568H753.792V296.136C755.712 292.36 758.784 290.184 763.2 290.184Z" fill="white"/>
<rect x="810" y="248" width="104" height="104" rx="27.7333" fill="#23557F"/>
<path d="M861.571 264.001C858.602 264.014 855.767 264.265 853.272 264.701C845.923 265.985 844.589 268.673 844.589 273.63V280.177H861.956V282.359H838.072C833.024 282.359 828.605 285.36 827.223 291.068C825.628 297.61 825.557 301.693 827.223 308.525C828.457 313.61 831.405 317.234 836.452 317.234H842.423V309.386C842.423 303.716 847.383 298.715 853.272 298.715H870.619C875.447 298.715 879.302 294.783 879.302 289.987V273.63C879.302 268.975 875.331 265.478 870.619 264.701C867.635 264.21 864.54 263.987 861.571 264.001ZM852.179 269.266C853.973 269.266 855.438 270.738 855.438 272.549C855.438 274.353 853.973 275.812 852.179 275.812C850.379 275.812 848.921 274.353 848.921 272.549C848.921 270.738 850.379 269.266 852.179 269.266Z" fill="#5A9FD4"/>
<path d="M881.468 282.358V289.986C881.468 295.899 876.4 300.877 870.619 300.877H853.273C848.522 300.877 844.59 304.899 844.59 309.605V325.962C844.59 330.617 848.683 333.355 853.273 334.69C858.77 336.289 864.042 336.578 870.619 334.69C874.992 333.438 879.303 330.918 879.303 325.962V319.415H861.956V317.233H887.986C893.033 317.233 894.914 313.751 896.669 308.524C898.482 303.144 898.405 297.969 896.669 291.067C895.422 286.097 893.04 282.358 887.986 282.358H881.468ZM871.712 323.779C873.513 323.779 874.971 325.238 874.971 327.043C874.971 328.853 873.513 330.326 871.712 330.326C869.919 330.326 868.454 328.853 868.454 327.043C868.454 325.238 869.919 323.779 871.712 323.779Z" fill="#FFD43B"/>
<path d="M959.952 278.664C971.856 278.664 977.68 283.336 977.68 292.552C977.68 301.768 971.856 306.376 959.952 306.376H949.008V325H943.184V278.664H959.952ZM959.824 301.192C968.144 301.192 971.664 298.44 971.664 292.552C971.664 286.664 968.144 283.848 959.824 283.848H949.008V301.192H959.824ZM984.461 333.128H987.085C990.22 333.128 992.077 332.808 993.293 329.544L995.021 325L981.901 290.568H987.853L997.773 317.832L1007.69 290.568H1013.64L998.285 330.76C996.749 334.856 994.445 337.8 988.365 337.8H984.461V333.128ZM1036.28 320.264V325H1031.8C1026.3 325 1023.04 323.592 1023.04 316.872V295.048H1017.28V290.568H1023.04V282.504H1028.6V290.568H1035.84V295.048H1028.6V315.848C1028.6 319.112 1029.56 320.264 1032.64 320.264H1036.28ZM1058.81 289.8C1067.06 289.8 1070.65 295.176 1070.65 302.664V325H1065.08V304.008C1065.08 298.568 1063.22 294.472 1057.34 294.472C1050.74 294.472 1047.54 299.592 1047.54 306.312V325H1041.98V278.664H1047.54V296.008C1050.1 291.336 1054.39 289.8 1058.81 289.8ZM1092.37 325.768C1082.32 325.768 1076.18 318.792 1076.18 307.784C1076.18 296.776 1082.32 289.8 1092.37 289.8C1102.36 289.8 1108.56 296.776 1108.56 307.784C1108.56 318.792 1102.36 325.768 1092.37 325.768ZM1092.37 321.032C1098.96 321.032 1102.87 316.104 1102.87 307.784C1102.87 299.464 1098.96 294.472 1092.37 294.472C1085.78 294.472 1081.88 299.464 1081.88 307.784C1081.88 316.104 1085.78 321.032 1092.37 321.032ZM1131.5 289.8C1139.75 289.8 1143.34 295.176 1143.34 302.664V325H1137.77V304.008C1137.77 298.568 1135.91 294.472 1130.02 294.472C1123.43 294.472 1120.23 299.592 1120.23 306.312V325H1114.66V290.568H1120.23V296.008C1122.79 291.336 1127.08 289.8 1131.5 289.8Z" fill="white"/>
<path d="M584.592 293.792L590.016 289.472C591.744 288.096 592.608 286.656 592.608 285.152V284.912C592.608 284.304 592.384 283.792 591.936 283.376C591.52 282.928 590.896 282.704 590.064 282.704C589.232 282.704 588.56 282.944 588.048 283.424C587.568 283.872 587.168 284.512 586.848 285.344L584.304 284.288C584.656 283.2 585.312 282.256 586.272 281.456C587.264 280.624 588.608 280.208 590.304 280.208C592.128 280.208 593.488 280.672 594.384 281.6C595.312 282.496 595.776 283.584 595.776 284.864C595.776 286.208 595.344 287.392 594.48 288.416C593.648 289.44 592.64 290.416 591.456 291.344L587.76 294.176H596.4V296.576H584.592V293.792Z" fill="#6551F3"/>
<path d="M590.064 494.864C588.4 494.864 587.104 494.528 586.176 493.856C585.248 493.152 584.528 492.352 584.016 491.456L586.272 489.872C586.656 490.608 587.12 491.216 587.664 491.696C588.24 492.176 589.04 492.416 590.064 492.416C590.992 492.416 591.712 492.208 592.224 491.792C592.768 491.344 593.04 490.752 593.04 490.016V489.68C593.04 488.944 592.752 488.4 592.176 488.048C591.6 487.664 590.784 487.472 589.728 487.472H588.048V485.072H589.728C590.752 485.072 591.504 484.88 591.984 484.496C592.496 484.112 592.752 483.648 592.752 483.104V482.768C592.752 482.128 592.512 481.616 592.032 481.232C591.552 480.848 590.896 480.656 590.064 480.656C588.56 480.656 587.408 481.312 586.608 482.624L584.592 480.992C585.168 480.16 585.888 479.488 586.752 478.976C587.616 478.464 588.752 478.208 590.16 478.208C591.888 478.208 593.264 478.592 594.288 479.36C595.312 480.096 595.824 481.104 595.824 482.384C595.824 483.44 595.488 484.288 594.816 484.928C594.176 485.536 593.392 485.92 592.464 486.08V486.272C593.488 486.432 594.352 486.832 595.056 487.472C595.76 488.112 596.112 488.992 596.112 490.112C596.112 491.552 595.552 492.704 594.432 493.568C593.344 494.432 591.888 494.864 590.064 494.864Z" fill="#6551F3"/>
<path d="M585.072 186.176H589.584V175.136L585.312 177.296L584.16 175.184L589.344 172.496H592.608V186.176H596.592V188.576H585.072V186.176Z" fill="#6551F3"/>
<path d="M721.256 522.296L734.76 508.856H694.12V476.664H699.432V503.928H734.76L721.256 490.424L724.84 486.84L744.36 506.36L724.84 525.88L721.256 522.296Z" fill="white"/>
<path d="M1855.2 523C1855.01 521.272 1854.88 520.184 1854.82 518.008C1852.32 521.592 1848.29 523.768 1842.91 523.768C1837.47 523.768 1830.75 521.464 1830.75 513.912C1830.75 507.192 1836.06 502.84 1848.16 502.84H1854.82V502.2C1854.82 498.04 1854.56 492.344 1846.37 492.344C1840.03 492.344 1837.86 495.8 1837.22 499.448H1831.65C1832.48 492.664 1837.09 487.8 1846.62 487.8C1857.76 487.8 1860.38 494.456 1860.38 501.56V515.768C1860.38 518.2 1860.51 520.952 1860.77 523H1855.2ZM1844.26 519.224C1849.57 519.224 1854.94 516.664 1854.94 507.064H1848.74C1840.29 507.064 1836.45 509.176 1836.45 513.4C1836.45 517.176 1839.46 519.224 1844.26 519.224ZM1868.29 476.664H1875.2V483.448H1868.29V476.664ZM1868.93 488.568H1874.5V523H1868.93V488.568ZM1882.73 476.664H1888.29V504.44L1903.65 488.568H1910.63L1897.51 502.072L1911.85 523H1905.32L1893.73 506.04L1888.29 511.608V523H1882.73V476.664ZM1916.48 476.664H1923.39V483.448H1916.48V476.664ZM1917.12 488.568H1922.68V523H1917.12V488.568ZM1961.74 476.664V523H1956.17V517.304C1953.93 521.08 1950.28 523.768 1944.84 523.768C1936.26 523.768 1930.18 516.984 1930.18 505.784C1930.18 494.52 1936.26 487.8 1944.84 487.8C1950.28 487.8 1953.93 490.488 1956.17 494.264V476.664H1961.74ZM1946.06 519.032C1952.33 519.032 1956.49 513.592 1956.49 505.784C1956.49 497.976 1952.33 492.472 1946.06 492.472C1939.72 492.472 1935.88 498.04 1935.88 505.784C1935.88 513.528 1939.72 519.032 1946.06 519.032ZM1984.06 523.768C1974.01 523.768 1967.87 516.792 1967.87 505.784C1967.87 494.776 1974.01 487.8 1984.06 487.8C1994.04 487.8 2000.25 494.776 2000.25 505.784C2000.25 516.792 1994.04 523.768 1984.06 523.768ZM1984.06 519.032C1990.65 519.032 1994.56 514.104 1994.56 505.784C1994.56 497.464 1990.65 492.472 1984.06 492.472C1977.47 492.472 1973.56 497.464 1973.56 505.784C1973.56 514.104 1977.47 519.032 1984.06 519.032ZM2005.27 515.704H2012.44V523H2005.27V515.704ZM2049.3 476.664V523H2043.73V517.304C2041.49 521.08 2037.84 523.768 2032.4 523.768C2023.83 523.768 2017.75 516.984 2017.75 505.784C2017.75 494.52 2023.83 487.8 2032.4 487.8C2037.84 487.8 2041.49 490.488 2043.73 494.264V476.664H2049.3ZM2033.62 519.032C2039.89 519.032 2044.05 513.592 2044.05 505.784C2044.05 497.976 2039.89 492.472 2033.62 492.472C2027.28 492.472 2023.44 498.04 2023.44 505.784C2023.44 513.528 2027.28 519.032 2033.62 519.032ZM2072.01 487.8C2082.69 487.8 2088.71 495.736 2088.13 507.32H2061.19C2061.7 514.232 2065.54 519.032 2072.13 519.032C2077.25 519.032 2081.03 516.152 2082.12 511.8H2087.81C2086.28 519.608 2080.13 523.768 2072.13 523.768C2061.64 523.768 2055.43 516.536 2055.43 505.784C2055.43 495.032 2061.83 487.8 2072.01 487.8ZM2082.25 503.032C2082.12 497.848 2078.92 492.472 2071.81 492.472C2065.54 492.472 2062.02 496.696 2061.25 503.032H2082.25ZM2091.02 488.568H2097.1L2106.7 516.152L2116.3 488.568H2122.32L2109.58 523H2103.76L2091.02 488.568Z" fill="white"/>
<path d="M209.32 162H156V180.84H209.32V162Z" fill="#6551F3"/>
<path d="M156 198.51C171.169 184.779 194.151 184.779 209.32 198.51V221.989L209.31 222L182.66 194.951L156.01 222L156 221.989V198.51Z" fill="#6551F3"/>
<path d="M271.907 203.845H270.764C269.684 203.845 268.859 203.654 268.287 203.207C267.716 202.761 267.398 201.868 267.398 200.464V189.044C267.398 185.088 266.192 181.898 263.842 179.41C261.492 176.922 257.619 175.71 252.285 175.71C247.459 175.71 243.712 176.794 241.109 178.9C238.505 181.069 236.918 184.004 236.473 187.768H244.919C245.49 184.004 247.903 182.154 252.031 182.154C254.507 182.154 256.285 182.792 257.238 184.068C258.19 185.344 258.698 187.13 258.698 189.427V190.384H251.84C246.443 190.384 242.315 191.341 239.521 193.319C236.727 195.296 235.33 197.976 235.33 201.357C235.33 204.802 236.6 207.354 239.14 209.013C241.68 210.736 244.665 211.565 248.157 211.565C253.555 211.565 257.555 209.651 260.032 205.759C260.603 207.61 261.556 208.949 262.889 209.651C264.223 210.417 266.192 210.8 268.922 210.8H271.907V203.845ZM250.126 205.121C248.221 205.121 246.76 204.675 245.744 203.845C244.665 203.016 244.157 201.931 244.157 200.592C244.157 197.465 247.078 195.871 252.983 195.871H258.825C258.825 199.06 258 201.421 256.285 202.888C254.571 204.356 252.539 205.121 250.126 205.121Z" fill="white"/>
<path d="M277.362 164.609V172.839H286.061V164.609H277.362ZM277.362 176.475V210.8H286.061V176.475H277.362Z" fill="white"/>
<path d="M293.472 164.609V210.8H302.171V200.911L306.616 196.317L316.459 210.8H326.746L312.522 190.001L325.476 176.475H314.745L302.171 189.746V164.609H293.472Z" fill="white"/>
<path d="M330.879 164.609V172.839H339.578V164.609H330.879ZM330.879 176.475V210.8H339.578V176.475H330.879Z" fill="white"/>
<path d="M380.254 164.609H371.555V181.516C369.205 177.624 365.586 175.71 360.823 175.71C356.314 175.71 352.631 177.305 349.901 180.559C347.17 183.812 345.773 188.215 345.773 193.638C345.773 199.06 347.17 203.399 349.901 206.653C352.631 209.906 356.314 211.565 360.823 211.565C365.586 211.565 369.205 209.651 371.555 205.759V210.8H380.254V164.609ZM363.173 204.611C360.315 204.611 358.219 203.59 356.759 201.485C355.298 199.443 354.6 196.828 354.6 193.638C354.6 190.448 355.298 187.832 356.759 185.726C358.219 183.621 360.315 182.6 363.173 182.6C365.967 182.6 368.126 183.621 369.713 185.599C371.237 187.64 371.999 190.32 371.999 193.638C371.999 196.955 371.237 199.635 369.713 201.612C368.126 203.59 365.967 204.611 363.173 204.611Z" fill="white"/>
<path d="M402.791 211.565C408.125 211.565 412.316 209.97 415.428 206.716C418.476 203.463 420 199.124 420 193.638C420 188.151 418.476 183.812 415.428 180.559C412.316 177.305 408.125 175.71 402.791 175.71C397.394 175.71 393.203 177.305 390.155 180.559C387.106 183.812 385.582 188.151 385.582 193.638C385.582 199.124 387.106 203.463 390.155 206.716C393.203 209.97 397.394 211.565 402.791 211.565ZM402.791 204.611C400.061 204.611 398.029 203.654 396.568 201.74C395.108 199.89 394.409 197.146 394.409 193.638C394.409 190.129 395.108 187.385 396.568 185.471C398.029 183.557 400.061 182.6 402.791 182.6C405.522 182.6 407.554 183.557 409.014 185.471C410.475 187.385 411.173 190.129 411.173 193.638C411.173 197.146 410.475 199.89 409.014 201.74C407.554 203.654 405.522 204.611 402.791 204.611Z" fill="white"/>
</svg>
